<svg version="1.1" id="Layer_1" xmlns="http://www.w3.org/2000/svg" xmlns:xlink="http://www.w3.org/1999/xlink" x="0px" y="0px"
	 width="100%" viewBox="0 0 512 512" enable-background="new 0 0 512 512" xml:space="preserve">
<path fill="#000000" opacity="1.000000" stroke="none" 
	d="
M26.000000,513.000000 
	C17.671410,513.000000 9.342818,513.000000 1.010671,513.000000 
	C1.007114,342.435211 1.007114,171.870407 1.007114,1.000000 
	C78.020622,1.000000 155.041656,1.000000 232.519287,1.387274 
	C229.245148,2.863288 225.486084,3.864257 221.788788,5.056688 
	C209.036682,9.169419 197.373825,14.912569 191.664062,28.057428 
	C190.219482,31.383118 188.328629,33.407101 185.212433,34.979572 
	C165.588562,44.882076 152.717850,60.805431 145.474869,81.231934 
	C137.543304,103.600311 137.298630,126.627487 140.667542,149.986420 
	C138.250610,152.318359 135.467163,154.154694 134.171478,156.737396 
	C125.717422,173.588898 128.282715,190.112625 137.471100,205.614624 
	C141.883102,213.058228 151.959641,218.278992 160.428879,210.228638 
	C160.960220,211.478058 160.995438,212.639175 161.295456,213.727249 
	C165.846222,230.231522 172.451950,245.880295 181.216522,260.581055 
	C190.675613,276.446686 202.889267,289.436005 220.086700,297.419983 
	C220.192902,309.616791 221.081650,321.391846 218.078781,333.359100 
	C216.324738,338.127411 214.643906,342.502136 212.631866,347.011230 
	C204.891220,351.207031 197.430634,355.178345 190.082260,359.347412 
	C171.000000,370.173706 151.949707,381.056702 132.923706,391.981659 
	C126.192917,395.846527 119.569397,399.898224 112.539246,403.925446 
	C110.543182,404.724579 108.830971,405.333801 107.277901,406.221466 
	C93.951584,413.838470 80.855743,421.887817 67.290688,429.049713 
	C53.937462,436.099762 44.711472,446.745178 37.593266,459.643860 
	C28.414215,476.276917 26.230656,494.425140 26.000000,513.000000 
z"/>
<path fill="#000000" opacity="1.000000" stroke="none" 
	d="
M287.000000,0.999999 
	C362.290131,1.000000 437.580292,1.000000 512.935181,1.000000 
	C512.935181,171.666656 512.935181,342.333313 512.929321,513.000000 
	C504.928131,513.000000 496.932739,513.000000 488.468170,512.542969 
	C487.616455,497.933167 485.929413,484.058960 481.137909,470.568390 
	C475.569916,454.891449 466.381683,441.807800 452.834412,432.524048 
	C442.256104,425.274902 430.493988,419.744843 419.211884,413.534546 
	C413.244385,410.249695 407.178528,407.143585 401.003632,403.633667 
	C393.525391,399.184845 386.194092,395.070618 378.876984,390.931305 
	C352.928436,376.251984 326.984741,361.564087 300.898682,346.551208 
	C293.832916,334.722321 294.602203,321.586273 293.052948,308.615723 
	C293.541443,304.190002 293.820984,300.135986 294.425842,295.937958 
	C302.303650,290.226990 310.473633,285.308777 317.216248,278.890991 
	C322.762665,273.611725 327.020996,266.807068 331.138397,260.232666 
	C341.215088,244.142715 347.808594,226.567337 352.411194,208.194962 
	C355.502441,212.858475 360.766083,215.110016 365.632751,213.742172 
	C370.936676,212.251434 374.732849,208.842545 377.383423,204.131638 
	C383.347321,193.531998 386.019409,182.328308 384.056702,170.098114 
	C382.625153,161.177704 380.397034,152.971115 371.087524,148.550934 
	C370.937469,135.248718 370.845337,122.367401 370.652954,109.487587 
	C370.587372,105.098640 366.764618,100.427521 371.774200,96.428528 
	C372.110291,96.160240 371.979736,95.134285 371.863586,94.497688 
	C367.736420,71.873322 358.858063,51.479660 342.995209,34.558681 
	C328.340210,18.926155 309.990753,9.365544 289.759766,3.042130 
	C288.727875,2.719605 287.914886,1.696771 287.000000,0.999999 
z"/>
<path fill="#2B2E6D" opacity="1.000000" stroke="none" 
	d="
M286.531342,0.999999 
	C287.914886,1.696771 288.727875,2.719605 289.759766,3.042130 
	C309.990753,9.365544 328.340210,18.926155 342.995209,34.558681 
	C358.858063,51.479660 367.736420,71.873322 371.863586,94.497688 
	C371.979736,95.134285 372.110291,96.160240 371.774200,96.428528 
	C366.764618,100.427521 370.587372,105.098640 370.652954,109.487587 
	C370.845337,122.367401 370.937469,135.248718 370.883484,148.839859 
	C368.359253,151.710449 365.089172,153.449890 363.882233,156.121414 
	C361.612366,161.145721 360.533447,166.708069 358.747437,172.358322 
	C357.747040,177.111374 356.958466,181.552780 356.069092,186.375580 
	C355.328430,189.514603 354.688599,192.272247 353.601807,195.017273 
	C351.177765,195.004684 349.200684,195.004684 346.801453,195.004684 
	C346.184875,187.757141 345.975281,180.776337 344.937225,173.920975 
	C341.553375,151.574219 337.831970,129.278793 334.330200,106.949539 
	C333.716034,103.033371 331.837341,101.964584 327.912354,102.263893 
	C313.220245,103.384277 298.611023,102.531677 284.268585,98.944832 
	C279.987000,97.874069 275.848846,96.230011 270.206207,94.375847 
	C274.769470,99.455322 278.334900,103.424095 282.706940,108.290749 
	C260.767151,104.342537 241.062469,98.179482 223.070633,87.157661 
	C218.386200,84.287956 213.644775,79.202385 208.968674,79.246872 
	C203.809082,79.295967 198.879395,84.534477 193.519745,86.693970 
	C183.939331,90.554054 179.324631,98.096214 177.685532,107.507362 
	C174.179367,127.638496 170.984619,147.830521 168.096649,168.059601 
	C166.837234,176.881271 166.645691,185.855377 165.949097,195.024689 
	C162.944214,195.024689 160.464478,195.024689 157.964783,194.926971 
	C157.944839,194.829239 157.747314,194.801437 157.676956,194.435898 
	C155.710205,185.038498 153.813812,176.006622 151.933929,166.590149 
	C150.985580,163.277893 150.215347,160.266983 149.007141,157.443481 
	C147.460037,153.828064 145.665375,150.251755 140.989105,149.835999 
	C137.298630,126.627487 137.543304,103.600311 145.474869,81.231934 
	C152.717850,60.805431 165.588562,44.882076 185.212433,34.979572 
	C188.328629,33.407101 190.219482,31.383118 191.664062,28.057428 
	C197.373825,14.912569 209.036682,9.169419 221.788788,5.056688 
	C225.486084,3.864257 229.245148,2.863288 232.987946,1.387274 
	C250.687561,1.000000 268.375122,1.000000 286.531342,0.999999 
z"/>
<path fill="#646DB2" opacity="1.000000" stroke="none" 
	d="
M401.000000,513.000000 
	C305.312439,513.000000 209.624878,513.000000 113.476654,512.531372 
	C113.071373,490.679993 113.126762,469.297180 113.630501,447.934021 
	C144.717697,447.967072 175.356552,447.997498 205.995392,447.990417 
	C270.936218,447.975433 335.877075,447.940887 400.845642,448.387695 
	C400.915588,470.240662 400.957794,491.620331 401.000000,513.000000 
z"/>
<path fill="#575F99" opacity="1.000000" stroke="none" 
	d="
M113.182144,447.914368 
	C113.126762,469.297180 113.071373,490.679993 113.007996,512.531372 
	C84.312439,513.000000 55.624878,513.000000 26.468658,513.000000 
	C26.230656,494.425140 28.414215,476.276917 37.593266,459.643860 
	C44.711472,446.745178 53.937462,436.099762 67.290688,429.049713 
	C80.855743,421.887817 93.951584,413.838470 107.277901,406.221466 
	C108.830971,405.333801 110.543182,404.724579 112.574265,404.400543 
	C113.038666,419.181335 113.110405,433.547852 113.182144,447.914368 
z"/>
<path fill="#575F99" opacity="1.000000" stroke="none" 
	d="
M401.468658,513.000000 
	C400.957794,491.620331 400.915588,470.240662 400.877441,447.928741 
	C400.897186,435.239532 400.900208,423.482544 400.938568,411.725647 
	C400.947021,409.135803 401.080933,406.546387 401.157074,403.956757 
	C407.178528,407.143585 413.244385,410.249695 419.211884,413.534546 
	C430.493988,419.744843 442.256104,425.274902 452.834412,432.524048 
	C466.381683,441.807800 475.569916,454.891449 481.137909,470.568390 
	C485.929413,484.058960 487.616455,497.933167 487.999512,512.542969 
	C459.312439,513.000000 430.624878,513.000000 401.468658,513.000000 
z"/>
<path fill="#F8C4B8" opacity="1.000000" stroke="none" 
	d="
M157.984741,195.024689 
	C160.464478,195.024689 162.944214,195.024689 165.949097,195.024689 
	C166.645691,185.855377 166.837234,176.881271 168.096649,168.059601 
	C170.984619,147.830521 174.179367,127.638496 177.685532,107.507362 
	C179.324631,98.096214 183.939331,90.554054 193.519745,86.693970 
	C198.879395,84.534477 203.809082,79.295967 208.968674,79.246872 
	C213.644775,79.202385 218.386200,84.287956 223.070633,87.157661 
	C241.062469,98.179482 260.767151,104.342537 282.706940,108.290749 
	C278.334900,103.424095 274.769470,99.455322 270.206207,94.375847 
	C275.848846,96.230011 279.987000,97.874069 284.268585,98.944832 
	C298.611023,102.531677 313.220245,103.384277 327.912354,102.263893 
	C331.837341,101.964584 333.716034,103.033371 334.330200,106.949539 
	C337.831970,129.278793 341.553375,151.574219 344.937225,173.920975 
	C345.975281,180.776337 346.184875,187.757141 346.801453,195.004684 
	C349.200684,195.004684 351.177765,195.004684 353.595154,195.442596 
	C353.381866,199.953461 352.728302,204.026398 352.074738,208.099350 
	C347.808594,226.567337 341.215088,244.142715 331.138397,260.232666 
	C327.020996,266.807068 322.762665,273.611725 317.216248,278.890991 
	C310.473633,285.308777 302.303650,290.226990 294.042023,295.953552 
	C292.218201,296.411438 291.058777,296.598114 289.995453,297.024445 
	C270.539154,304.825134 250.766068,305.905487 230.637436,299.923523 
	C227.162033,298.890717 223.660248,297.946533 220.170654,296.961426 
	C202.889267,289.436005 190.675613,276.446686 181.216522,260.581055 
	C172.451950,245.880295 165.846222,230.231522 161.295456,213.727249 
	C160.995438,212.639175 160.960220,211.478058 160.422272,209.792801 
	C159.356705,204.498016 158.670715,199.761353 157.984741,195.024689 
M217.597855,187.833542 
	C224.264435,182.235809 225.981064,169.918747 221.212769,161.896133 
	C217.997528,156.486526 213.323883,156.546082 210.148697,161.996490 
	C206.835785,167.683304 206.041443,181.985275 212.439209,187.901154 
	C204.769913,188.332184 197.052338,188.724762 190.486938,193.391083 
	C184.890121,197.369019 184.735565,202.557724 190.719254,205.603897 
	C203.629501,212.176193 217.048035,212.111420 230.095123,205.980911 
	C232.355759,204.918686 234.598770,201.098633 234.530640,198.616043 
	C234.470413,196.421921 231.567200,193.567154 229.220703,192.342926 
	C225.448257,190.374664 221.100250,189.509583 217.597855,187.833542 
M300.277405,186.367447 
	C305.947052,178.592468 305.804260,170.280685 301.924011,161.998566 
	C299.506378,156.838135 295.041748,156.501266 291.782562,160.683853 
	C286.018494,168.081009 287.691467,182.293167 294.360138,188.477692 
	C291.165436,189.406296 287.916992,190.184647 284.789948,191.302505 
	C281.094238,192.623627 276.748199,194.582581 277.490082,198.921677 
	C277.992950,201.862808 281.075897,205.452835 283.911682,206.714325 
	C295.516357,211.876526 307.473480,211.614624 319.259644,206.834625 
	C320.618378,206.283569 321.893066,205.371216 323.006561,204.397476 
	C326.805847,201.075073 327.053040,198.101089 323.140869,194.812210 
	C320.688293,192.750381 317.572540,191.178589 314.494568,190.228867 
	C309.760620,188.768173 304.803375,188.030960 300.277405,186.367447 
M309.325775,138.089417 
	C302.416382,137.444595 295.517334,136.532700 288.593384,136.264908 
	C285.002655,136.126022 282.619995,138.432617 282.976013,142.345261 
	C283.291199,145.809265 285.664734,147.120850 288.930481,146.868057 
	C297.708466,146.188568 306.034698,147.837189 314.281433,150.863998 
	C316.004547,151.496445 319.580505,150.159027 320.724945,148.583420 
	C322.535034,146.091461 321.471954,143.005020 318.448761,141.518997 
	C315.785065,140.209702 312.898804,139.353195 309.325775,138.089417 
M212.891037,136.207138 
	C206.677429,137.870544 200.392654,139.313126 194.278259,141.284332 
	C190.882965,142.378952 189.944870,145.468338 191.302612,148.617599 
	C192.631271,151.699326 195.298737,152.306793 198.377670,150.959793 
	C206.278748,147.503098 214.539398,146.228149 223.124496,146.864578 
	C226.621368,147.123795 229.052444,145.768204 229.217926,141.996552 
	C229.378052,138.347443 227.140137,136.470078 223.743286,136.214279 
	C220.447601,135.966110 217.119888,136.143250 212.891037,136.207138 
M241.343857,249.355453 
	C238.877777,247.707672 236.513168,245.866104 233.900620,244.498032 
	C232.687424,243.862747 230.992172,244.148026 229.515442,244.015991 
	C229.563187,245.506104 229.037308,247.446991 229.779449,248.391464 
	C231.273087,250.292313 233.282227,251.950714 235.387772,253.179520 
	C243.797272,258.087311 253.069748,258.802948 262.442139,257.691376 
	C269.924133,256.803986 277.290710,254.963303 282.315918,248.643799 
	C283.144135,247.602280 282.593018,245.463913 282.679382,243.832474 
	C281.189636,244.027832 279.238983,243.683136 278.280548,244.501068 
	C267.249420,253.915237 254.880051,253.243423 241.343857,249.355453 
M242.453476,223.238983 
	C243.350204,229.651077 248.170090,232.325241 253.432327,234.287781 
	C254.506073,234.688232 256.195343,233.438293 257.600861,232.949097 
	C257.092560,231.671768 256.850189,230.163712 255.999649,229.183350 
	C255.182739,228.241760 253.740494,227.837891 252.564713,227.213425 
	C248.664459,225.141937 247.993500,222.169876 250.225800,218.495392 
	C251.434097,216.506439 252.902985,214.673706 254.078796,212.667618 
	C255.673248,209.947327 257.326569,207.217728 258.473053,204.302704 
	C258.867920,203.298752 258.162689,201.365463 257.302826,200.547852 
	C256.772949,200.044022 254.282669,200.441696 253.897095,201.125305 
	C249.925568,208.166336 246.204254,215.348511 242.453476,223.238983 
z"/>
<path fill="#7F6DAF" opacity="1.000000" stroke="none" 
	d="
M401.003632,403.633667 
	C401.080933,406.546387 400.947021,409.135803 400.938568,411.725647 
	C400.900208,423.482544 400.897186,435.239532 400.849670,447.455444 
	C335.877075,447.940887 270.936218,447.975433 205.995392,447.990417 
	C175.356552,447.997498 144.717697,447.967072 113.630501,447.934021 
	C113.110405,433.547852 113.038666,419.181335 112.931915,404.339722 
	C119.569397,399.898224 126.192917,395.846527 132.923706,391.981659 
	C151.949707,381.056702 171.000000,370.173706 190.082260,359.347412 
	C197.430634,355.178345 204.891220,351.207031 212.980988,347.115814 
	C216.194839,348.323395 218.695511,349.634155 221.267242,350.786316 
	C238.336151,358.433502 256.219055,361.913147 274.549988,357.715088 
	C283.725647,355.613800 292.230804,350.584503 301.039185,346.879456 
	C326.984741,361.564087 352.928436,376.251984 378.876984,390.931305 
	C386.194092,395.070618 393.525391,399.184845 401.003632,403.633667 
z"/>
<path fill="#F9C5B8" opacity="1.000000" stroke="none" 
	d="
M300.898682,346.551208 
	C292.230804,350.584503 283.725647,355.613800 274.549988,357.715088 
	C256.219055,361.913147 238.336151,358.433502 221.267242,350.786316 
	C218.695511,349.634155 216.194839,348.323395 213.312180,346.981415 
	C214.643906,342.502136 216.324738,338.127411 218.487473,333.346191 
	C234.063766,329.213684 249.357605,326.131165 264.182495,321.535797 
	C274.081726,318.467255 283.313538,313.245544 292.844025,308.987427 
	C294.602203,321.586273 293.832916,334.722321 300.898682,346.551208 
z"/>
<path fill="#F5AA98" opacity="1.000000" stroke="none" 
	d="
M293.052948,308.615723 
	C283.313538,313.245544 274.081726,318.467255 264.182495,321.535797 
	C249.357605,326.131165 234.063766,329.213684 218.560669,332.952576 
	C221.081650,321.391846 220.192902,309.616791 220.086700,297.419983 
	C223.660248,297.946533 227.162033,298.890717 230.637436,299.923523 
	C250.766068,305.905487 270.539154,304.825134 289.995453,297.024445 
	C291.058777,296.598114 292.218201,296.411438 293.716736,296.097595 
	C293.820984,300.135986 293.541443,304.190002 293.052948,308.615723 
z"/>
<path fill="#F4A897" opacity="1.000000" stroke="none" 
	d="
M157.964783,194.926971 
	C158.670715,199.761353 159.356705,204.498016 160.049316,209.670532 
	C151.959641,218.278992 141.883102,213.058228 137.471100,205.614624 
	C128.282715,190.112625 125.717422,173.588898 134.171478,156.737396 
	C135.467163,154.154694 138.250610,152.318359 140.667542,149.986420 
	C145.665375,150.251755 147.460037,153.828064 149.007141,157.443481 
	C150.215347,160.266983 150.985580,163.277893 151.666885,166.379242 
	C151.037552,166.192947 150.756943,165.681183 150.334473,165.499756 
	C148.674530,164.786972 146.969894,164.178207 145.281860,163.530807 
	C145.375702,165.448425 145.110123,167.477341 145.660187,169.253677 
	C146.261017,171.193878 147.616806,172.900314 148.781708,174.952011 
	C147.618515,175.446533 147.059250,175.786758 146.453979,175.923965 
	C143.787933,176.528320 140.124481,176.250839 140.599335,180.250534 
	C140.700272,181.100708 144.576233,181.889038 146.752045,182.011551 
	C149.660828,182.175339 151.125977,183.204086 151.021606,186.179932 
	C150.957428,188.009659 150.799225,189.849579 150.920578,191.669098 
	C151.094833,194.282211 150.598831,198.409164 151.952606,199.194534 
	C155.766098,201.406830 155.436859,195.952194 157.747314,194.801437 
	C157.747314,194.801437 157.944839,194.829239 157.964783,194.926971 
z"/>
<path fill="#F4A897" opacity="1.000000" stroke="none" 
	d="
M352.411194,208.194962 
	C352.728302,204.026398 353.381866,199.953461 354.042114,195.455200 
	C354.688599,192.272247 355.328430,189.514603 356.228455,186.741058 
	C357.010223,190.151489 357.280304,193.647003 358.193115,196.965729 
	C358.502747,198.091324 360.435272,198.770523 361.626160,199.653702 
	C362.357605,198.348450 363.571838,197.090134 363.704407,195.726639 
	C363.891205,193.805298 363.135193,191.813568 363.029999,189.838745 
	C362.640564,182.527496 362.723236,182.566483 370.002411,182.326309 
	C371.227112,182.285904 372.415588,181.148956 373.620819,180.518646 
	C372.816711,179.252686 372.290680,177.522278 371.140778,176.833817 
	C369.569031,175.892776 367.522675,175.744370 365.035126,175.085403 
	C366.586365,172.471527 368.083282,170.487564 368.964325,168.260010 
	C369.482147,166.950745 369.021057,165.254349 369.000244,163.732071 
	C367.404968,164.093704 365.307831,163.946487 364.318268,164.922363 
	C362.225372,166.986282 360.710968,169.636780 358.959320,172.046692 
	C360.533447,166.708069 361.612366,161.145721 363.882233,156.121414 
	C365.089172,153.449890 368.359253,151.710449 370.902130,149.261337 
	C380.397034,152.971115 382.625153,161.177704 384.056702,170.098114 
	C386.019409,182.328308 383.347321,193.531998 377.383423,204.131638 
	C374.732849,208.842545 370.936676,212.251434 365.632751,213.742172 
	C360.766083,215.110016 355.502441,212.858475 352.411194,208.194962 
z"/>
<path fill="#E8847C" opacity="1.000000" stroke="none" 
	d="
M358.747437,172.358307 
	C360.710968,169.636780 362.225372,166.986282 364.318268,164.922363 
	C365.307831,163.946487 367.404968,164.093704 369.000244,163.732071 
	C369.021057,165.254349 369.482147,166.950745 368.964325,168.260010 
	C368.083282,170.487564 366.586365,172.471527 365.035126,175.085403 
	C367.522675,175.744370 369.569031,175.892776 371.140778,176.833817 
	C372.290680,177.522278 372.816711,179.252686 373.620819,180.518646 
	C372.415588,181.148956 371.227112,182.285904 370.002411,182.326309 
	C362.723236,182.566483 362.640564,182.527496 363.029999,189.838745 
	C363.135193,191.813568 363.891205,193.805298 363.704407,195.726639 
	C363.571838,197.090134 362.357605,198.348450 361.626160,199.653702 
	C360.435272,198.770523 358.502747,198.091324 358.193115,196.965729 
	C357.280304,193.647003 357.010223,190.151489 356.329254,186.359680 
	C356.958466,181.552780 357.747040,177.111374 358.747437,172.358307 
z"/>
<path fill="#E8847C" opacity="1.000000" stroke="none" 
	d="
M157.676956,194.435898 
	C155.436859,195.952194 155.766098,201.406830 151.952606,199.194534 
	C150.598831,198.409164 151.094833,194.282211 150.920578,191.669098 
	C150.799225,189.849579 150.957428,188.009659 151.021606,186.179932 
	C151.125977,183.204086 149.660828,182.175339 146.752045,182.011551 
	C144.576233,181.889038 140.700272,181.100708 140.599335,180.250534 
	C140.124481,176.250839 143.787933,176.528320 146.453979,175.923965 
	C147.059250,175.786758 147.618515,175.446533 148.781708,174.952011 
	C147.616806,172.900314 146.261017,171.193878 145.660187,169.253677 
	C145.110123,167.477341 145.375702,165.448425 145.281860,163.530807 
	C146.969894,164.178207 148.674530,164.786972 150.334473,165.499756 
	C150.756943,165.681183 151.037552,166.192947 151.650375,166.763855 
	C153.813812,176.006622 155.710205,185.038498 157.676956,194.435898 
z"/>
<path fill="#F6AFA8" opacity="1.000000" stroke="none" 
	d="
M299.940887,186.986786 
	C304.803375,188.030960 309.760620,188.768173 314.494568,190.228867 
	C317.572540,191.178589 320.688293,192.750381 323.140869,194.812210 
	C327.053040,198.101089 326.805847,201.075073 323.006561,204.397476 
	C321.893066,205.371216 320.618378,206.283569 319.259644,206.834625 
	C307.473480,211.614624 295.516357,211.876526 283.911682,206.714325 
	C281.075897,205.452835 277.992950,201.862808 277.490082,198.921677 
	C276.748199,194.582581 281.094238,192.623627 284.789948,191.302505 
	C287.916992,190.184647 291.165436,189.406296 295.055298,188.278961 
	C297.147247,187.715744 298.544067,187.351273 299.940887,186.986786 
z"/>
<path fill="#F6AFA8" opacity="1.000000" stroke="none" 
	d="
M216.995422,188.178391 
	C221.100250,189.509583 225.448257,190.374664 229.220703,192.342926 
	C231.567200,193.567154 234.470413,196.421921 234.530640,198.616043 
	C234.598770,201.098633 232.355759,204.918686 230.095123,205.980911 
	C217.048035,212.111420 203.629501,212.176193 190.719254,205.603897 
	C184.735565,202.557724 184.890121,197.369019 190.486938,193.391083 
	C197.052338,188.724762 204.769913,188.332184 213.270203,187.909058 
	C215.065933,188.004120 216.030670,188.091248 216.995422,188.178391 
z"/>
<path fill="#313370" opacity="1.000000" stroke="none" 
	d="
M309.718292,138.193085 
	C312.898804,139.353195 315.785065,140.209702 318.448761,141.518997 
	C321.471954,143.005020 322.535034,146.091461 320.724945,148.583420 
	C319.580505,150.159027 316.004547,151.496445 314.281433,150.863998 
	C306.034698,147.837189 297.708466,146.188568 288.930481,146.868057 
	C285.664734,147.120850 283.291199,145.809265 282.976013,142.345261 
	C282.619995,138.432617 285.002655,136.126022 288.593384,136.264908 
	C295.517334,136.532700 302.416382,137.444595 309.718292,138.193085 
z"/>
<path fill="#313370" opacity="1.000000" stroke="none" 
	d="
M213.348633,136.170380 
	C217.119888,136.143250 220.447601,135.966110 223.743286,136.214279 
	C227.140137,136.470078 229.378052,138.347443 229.217926,141.996552 
	C229.052444,145.768204 226.621368,147.123795 223.124496,146.864578 
	C214.539398,146.228149 206.278748,147.503098 198.377670,150.959793 
	C195.298737,152.306793 192.631271,151.699326 191.302612,148.617599 
	C189.944870,145.468338 190.882965,142.378952 194.278259,141.284332 
	C200.392654,139.313126 206.677429,137.870544 213.348633,136.170380 
z"/>
<path fill="#2F316D" opacity="1.000000" stroke="none" 
	d="
M217.296631,188.005966 
	C216.030670,188.091248 215.065933,188.004120 213.738831,187.882401 
	C206.041443,181.985275 206.835785,167.683304 210.148697,161.996490 
	C213.323883,156.546082 217.997528,156.486526 221.212769,161.896133 
	C225.981064,169.918747 224.264435,182.235809 217.296631,188.005966 
z"/>
<path fill="#2F316D" opacity="1.000000" stroke="none" 
	d="
M300.109131,186.677124 
	C298.544067,187.351273 297.147247,187.715744 295.382416,188.109741 
	C287.691467,182.293167 286.018494,168.081009 291.782562,160.683853 
	C295.041748,156.501266 299.506378,156.838135 301.924011,161.998566 
	C305.804260,170.280685 305.947052,178.592468 300.109131,186.677124 
z"/>
<path fill="#EA857D" opacity="1.000000" stroke="none" 
	d="
M241.699707,249.509399 
	C254.880051,253.243423 267.249420,253.915237 278.280548,244.501068 
	C279.238983,243.683136 281.189636,244.027832 282.679382,243.832458 
	C282.593018,245.463913 283.144135,247.602280 282.315918,248.643799 
	C277.290710,254.963303 269.924133,256.803986 262.442139,257.691376 
	C253.069748,258.802948 243.797272,258.087311 235.387772,253.179520 
	C233.282227,251.950714 231.273087,250.292313 229.779449,248.391464 
	C229.037308,247.446991 229.563187,245.506104 229.515442,244.015991 
	C230.992172,244.148026 232.687424,243.862747 233.900620,244.498032 
	C236.513168,245.866104 238.877777,247.707672 241.699707,249.509399 
z"/>
<path fill="#EA857D" opacity="1.000000" stroke="none" 
	d="
M242.433350,222.865173 
	C246.204254,215.348511 249.925568,208.166336 253.897095,201.125305 
	C254.282669,200.441696 256.772949,200.044022 257.302826,200.547852 
	C258.162689,201.365463 258.867920,203.298752 258.473053,204.302704 
	C257.326569,207.217728 255.673248,209.947327 254.078796,212.667618 
	C252.902985,214.673706 251.434097,216.506439 250.225800,218.495392 
	C247.993500,222.169876 248.664459,225.141937 252.564713,227.213425 
	C253.740494,227.837891 255.182739,228.241760 255.999649,229.183350 
	C256.850189,230.163712 257.092560,231.671768 257.600861,232.949097 
	C256.195343,233.438293 254.506073,234.688232 253.432327,234.287781 
	C248.170090,232.325241 243.350204,229.651077 242.433350,222.865173 
z"/>
</svg>